<?xml version="1.0" encoding="utf-8"?><svg version="1.1" id="Layer_1" xmlns="http://www.w3.org/2000/svg" xmlns:xlink="http://www.w3.org/1999/xlink" x="0px" y="0px" viewBox="0 0 122.88 87.46" style="enable-background:new 0 0 122.88 87.46" xml:space="preserve"><g><path d="M2.17,87.46c-1.2,0-2.17-0.91-2.17-2.04c0-1.13,0.97-2.04,2.17-2.04h9.16V20.59c0-0.65,0.27-1.25,0.7-1.68 c0.44-0.44,1.03-0.71,1.68-0.71h13.02c0.66,0,1.25,0.27,1.68,0.71c0.43,0.43,0.7,1.03,0.7,1.68v62.78h9.69V38.8 c0-0.65,0.27-1.24,0.7-1.68l0,0l0,0l0,0c0.43-0.43,1.03-0.7,1.67-0.7h13.02c0.67,0,1.26,0.27,1.68,0.7c0.43,0.43,0.7,1.04,0.7,1.68 v44.57h9.69V2.38c0-0.65,0.27-1.24,0.7-1.68l0,0l0,0C67.42,0.27,68.01,0,68.67,0h13.02c0.66,0,1.25,0.27,1.68,0.7l0,0 c0.43,0.43,0.7,1.04,0.7,1.68v80.99h9.69V25.8c0-0.65,0.27-1.25,0.7-1.68l0,0c0.43-0.43,1.03-0.7,1.69-0.7h13.02 c0.66,0,1.26,0.27,1.68,0.7c0.43,0.43,0.7,1.03,0.7,1.68v57.58h9.16c1.2,0,2.17,0.91,2.17,2.04c0,1.13-0.97,2.04-2.17,2.04h-11.27 c-0.02,0-0.04,0-0.06,0H95.94c-0.02,0-0.04,0-0.06,0H81.96c-0.02,0-0.04,0-0.06,0H68.46c-0.02,0-0.04,0-0.06,0H54.49 c-0.02,0-0.04,0-0.06,0H40.98c-0.02,0-0.04,0-0.06,0H27l-0.06,0H13.5l-0.06,0H2.17L2.17,87.46z M24.77,22.55h-9.1v60.56h9.1V22.55 L24.77,22.55z M52.25,40.76h-9.1v42.35h9.1V40.76L52.25,40.76z M79.73,4.34h-9.1v78.77h9.1V4.34L79.73,4.34z M107.2,27.76h-9.1 v55.36h9.1V27.76L107.2,27.76z"/></g></svg>