<svg id="Layer_1" data-name="Layer 1" xmlns="http://www.w3.org/2000/svg" viewBox="0 0 122.88 86.79"><defs><style>.cls-1{fill-rule:evenodd;}</style></defs><title>television-video</title><path class="cls-1" d="M61.44,14.75A21.93,21.93,0,1,1,39.51,36.68,21.93,21.93,0,0,1,61.44,14.75ZM2.08,0h120.8V73.36H77.57v8.28h7.28v5.15h-47V81.64h7.28V73.36H0V0ZM118.73,4.15H4.15V69.2H118.72v-65ZM69.24,38c1.12-.72,1.11-1.52,0-2.16L57.7,29.24c-.91-.57-1.86-.24-1.83,1l0,13.4c.08,1.29.82,1.64,1.9,1L69.24,38ZM61.44,19.2A17.48,17.48,0,1,1,44,36.68,17.48,17.48,0,0,1,61.44,19.2Z"/></svg>